<svg class="svg-logo" viewBox="0 0 28.06 28.06"><path d="M28.06 14a13.77 13.77 0 0 1-1.88 7 14 14 0 0 1-5.11 5.1 13.69 13.69 0 0 1-7 1.88 13.79 13.79 0 0 1-4-.58 11.38 11.38 0 0 0 1.43-3c.11-.41.44-1.7 1-3.85a3 3 0 0 0 1.33 1.23 4.31 4.31 0 0 0 2.08.52 6.54 6.54 0 0 0 4-1.25 8.11 8.11 0 0 0 2.69-3.44 12.35 12.35 0 0 0 .95-4.93 7.47 7.47 0 0 0-1.09-3.91 8.17 8.17 0 0 0-3.15-3 9.46 9.46 0 0 0-4.65-1.16 11.89 11.89 0 0 0-3.66.63 9.14 9.14 0 0 0-4.83 3.43A8.21 8.21 0 0 0 4.94 11a8 8 0 0 0-.39 2.45 7.24 7.24 0 0 0 .73 3.34 4.13 4.13 0 0 0 2.13 2c.37.15.6 0 .7-.36l.14-.57.15-.55a.82.82 0 0 0-.2-.78 4.19 4.19 0 0 1-.93-2.76 6.65 6.65 0 0 1 6.91-6.72 5.91 5.91 0 0 1 4.3 1.5A5.17 5.17 0 0 1 20 12.5a10.47 10.47 0 0 1-1.25 5.28A3.67 3.67 0 0 1 15.56 20a2.24 2.24 0 0 1-1.79-.8 2.07 2.07 0 0 1-.42-1.91c.1-.42.26-1 .49-1.7s.41-1.34.55-1.88a5.79 5.79 0 0 0 .21-1.38 2.37 2.37 0 0 0-.49-1.52 1.72 1.72 0 0 0-1.41-.6 2.31 2.31 0 0 0-1.92 1 4.2 4.2 0 0 0-.78 2.58 4.81 4.81 0 0 0 .45 2.21l-1.81 7.65a12 12 0 0 0-.24 3.24 13.92 13.92 0 0 1-6.08-5.14A13.57 13.57 0 0 1 0 14a13.77 13.77 0 0 1 1.88-7A14 14 0 0 1 7 1.88 13.69 13.69 0 0 1 14 0a13.77 13.77 0 0 1 7 1.88A14 14 0 0 1 26.18 7a13.69 13.69 0 0 1 1.88 7z"></path></svg>