<svg class="svg-logo" viewBox="0 0 152 22"><path d="M13.3073 4.67225L8.646 0L0 8.66708L0.0055 8.67167L13.3008 22L26.6017 8.668L17.9685 0L13.3073 4.67225ZM13.3073 18.0116L3.98933 8.67167L8.6515 3.99942L13.3063 8.66525L17.952 4.0095L22.6133 8.68267L13.3073 18.0116ZM38.4065 9.35917C38.3901 9.14686 38.3317 8.93993 38.2348 8.75033C38.1379 8.56073 38.0043 8.39223 37.8418 8.25458C37.5412 8.02542 37.0764 7.90717 36.4503 7.90717C35.992 7.88517 35.5337 7.95758 35.1028 8.11983C34.9607 8.17803 34.8402 8.27902 34.7581 8.40878C34.676 8.53855 34.6363 8.69065 34.6445 8.844C34.6467 8.99358 34.6908 9.13954 34.7718 9.26529C34.8528 9.39104 34.9675 9.49153 35.1028 9.55533C35.5218 9.77992 35.9673 9.95133 36.4283 10.065L38.8318 10.7433C39.3818 10.8845 39.9089 11.1045 40.3966 11.3978C40.766 11.6224 41.0593 11.9524 41.2399 12.3448C41.4297 12.8306 41.5168 13.3485 41.4975 13.8692C41.501 14.3442 41.3918 14.8132 41.1789 15.2379C40.9661 15.6625 40.6555 16.0307 40.2728 16.3121C39.4561 16.9565 38.2488 17.2792 36.6502 17.281C35.9296 17.29 35.2112 17.1996 34.5153 17.0124C33.9299 16.8563 33.3772 16.5964 32.8836 16.2452C32.442 15.929 32.0817 15.5127 31.832 15.0304C31.5823 14.5481 31.4504 14.0135 31.4472 13.4704H34.4263C34.4162 13.7065 34.4669 13.9412 34.5734 14.1521C34.68 14.363 34.8389 14.543 35.035 14.6749C35.5089 14.9756 36.0626 15.1241 36.6227 15.1012C37.1066 15.1139 37.5879 15.0262 38.0362 14.8436C38.2047 14.7909 38.3522 14.6863 38.4576 14.5447C38.5629 14.4031 38.6208 14.2318 38.6228 14.0553C38.6365 13.8846 38.6032 13.7134 38.5266 13.5602C38.45 13.4071 38.3331 13.2778 38.1883 13.1863C37.774 12.9612 37.3271 12.8022 36.8638 12.7151C35.9864 12.5343 35.1245 12.2851 34.2861 11.9698C33.735 11.7715 33.2212 11.4817 32.7663 11.1128C32.4337 10.8439 32.1805 10.4896 32.0338 10.0879C31.9016 9.68457 31.8375 9.26201 31.8441 8.83758C31.8417 8.42934 31.9293 8.0256 32.1007 7.65508C32.2841 7.26642 32.5637 6.92908 32.9102 6.67425C33.3464 6.36 33.8377 6.13023 34.3585 5.99683C35.07 5.81239 35.8034 5.72603 36.5383 5.74017C38.1095 5.74017 39.259 6.05917 39.9868 6.69717C40.7138 7.33608 41.1107 8.22158 41.1886 9.34725H38.4065V9.35825V9.35917ZM57.8463 17.0014V11.297C57.8463 9.52692 58.7299 8.64783 60.4908 8.64783C60.7585 8.64783 61.0262 8.66983 61.2902 8.71383V5.74475H60.9098C60.6137 5.74475 60.3231 5.76125 60.0435 5.78875C59.443 5.85517 58.8755 6.09718 58.4118 6.4845C58.1185 6.732 57.8673 7.02533 57.6675 7.35258V6.03717H54.9569V17.0005L57.8463 17.0014ZM72.7641 12.0285C72.7641 9.84317 72.3287 8.21242 71.4624 7.12617C70.5934 6.039 69.3147 5.5 67.6262 5.5C66.859 5.48523 66.0962 5.61844 65.3794 5.89233C64.7478 6.13067 64.1813 6.51567 63.7248 7.01342C63.2613 7.52127 62.9091 8.12046 62.6908 8.7725C62.4454 9.51318 62.3246 10.2894 62.3333 11.0697C62.3333 15.0535 64.1557 17.0445 67.8003 17.0427C68.8807 17.0713 69.9415 16.7508 70.8253 16.1287C71.6926 15.4839 72.3182 14.5664 72.6018 13.5236H69.6208C69.5709 13.7131 69.4833 13.8907 69.3633 14.0456C69.2433 14.2006 69.0933 14.3298 68.9223 14.4256C68.5401 14.6454 68.1056 14.7578 67.6647 14.751C67.3414 14.7626 67.0195 14.7029 66.722 14.576C66.4244 14.4491 66.1585 14.2581 65.9432 14.0168C65.4812 13.4585 65.2263 12.7577 65.2218 12.0331H72.7641V12.0285ZM65.3116 10.1952C65.3315 9.53743 65.5879 8.90893 66.0339 8.42508C66.227 8.22272 66.4595 8.06216 66.7172 7.95336C66.9748 7.84456 67.2521 7.78983 67.5317 7.79258C67.8122 7.79258 68.0909 7.84208 68.354 7.93742C68.6198 8.03275 68.8628 8.18583 69.0635 8.38567C69.2798 8.60017 69.4494 8.85775 69.5613 9.14192C69.6923 9.48017 69.7638 9.83858 69.773 10.2007H65.3125V10.1961L65.3116 10.1952ZM83.2792 17.0023V10.0696C83.2867 9.44828 83.2039 8.82918 83.0335 8.23167C82.8895 7.71901 82.6187 7.25087 82.2461 6.87042C81.8398 6.47991 81.3451 6.19342 80.8042 6.03533C80.093 5.82729 79.3542 5.72899 78.6133 5.74383C77.8621 5.72894 77.1126 5.82343 76.3886 6.02433C75.8439 6.17361 75.3397 6.44298 74.9128 6.81267C74.5389 7.14551 74.2562 7.56831 74.0914 8.041C73.9155 8.54184 73.8211 9.06766 73.8118 9.59842H76.5004C76.5508 9.15658 76.7406 8.74225 77.0422 8.41592C77.3327 8.11983 77.8076 7.96767 78.4786 7.96767C78.9468 7.94581 79.4122 8.05029 79.8261 8.27017C80.0419 8.39474 80.2041 8.59469 80.2814 8.83158C80.3587 9.06847 80.3458 9.32559 80.245 9.5535C80.1781 9.70383 80.0763 9.83767 79.9471 9.9385C79.6959 10.1127 79.2037 10.2474 78.4768 10.3538C77.8028 10.4503 77.1318 10.5664 76.4647 10.7021C75.9067 10.8087 75.3702 11.0069 74.877 11.2887C74.4335 11.5532 74.0719 11.9352 73.832 12.3924C73.5544 12.9799 73.4242 13.6261 73.4525 14.2753C73.4373 14.679 73.5075 15.0815 73.6587 15.4562C73.8099 15.8309 74.0386 16.1694 74.3298 16.4496C74.9164 17.0042 75.8386 17.2819 77.0963 17.2838C77.7647 17.2962 78.4291 17.1782 79.0524 16.9363C79.5711 16.7385 80.0364 16.4221 80.4109 16.0123C80.4329 16.3451 80.4934 16.6742 80.5897 16.9932H83.2792V17.0023ZM80.3678 12.8324C80.3678 13.1532 80.2945 13.4686 80.1552 13.7573C79.8781 14.3413 79.3851 14.7948 78.7802 15.0223C78.4502 15.1516 78.1 15.2167 77.7462 15.213C76.813 15.213 76.3437 14.8033 76.3437 13.9847C76.3308 13.7786 76.3666 13.5724 76.4479 13.3826C76.5293 13.1928 76.654 13.0248 76.8121 12.892C77.1247 12.6399 77.6948 12.4337 78.5226 12.2714C79.0543 12.1651 79.4613 12.0698 79.7473 11.9799C79.9874 11.9148 80.2083 11.792 80.3898 11.6224L80.3678 12.8324ZM95.2233 17.0014V2.02583H92.3789V7.46717C91.5631 6.32408 90.4833 5.75208 89.1312 5.75208C88.4745 5.74088 87.8242 5.88274 87.2318 6.16642C86.6763 6.44142 86.1923 6.84292 85.8174 7.33792C85.4158 7.87594 85.1177 8.48393 84.9383 9.13092C84.7301 9.87483 84.6288 10.6446 84.6377 11.4171C84.6244 12.2543 84.7451 13.0883 84.9952 13.8875C85.2019 14.5599 85.5337 15.1872 85.9733 15.7364C86.3748 16.2314 86.8835 16.6274 87.461 16.896C88.0604 17.1701 88.7132 17.3078 89.3723 17.2993C90.7363 17.2993 91.7519 16.7585 92.4183 15.6741L92.4403 17.0143H95.2243L95.2233 17.0014ZM90.0478 14.9288C89.6981 14.9335 89.3526 14.8515 89.0423 14.6901C88.732 14.5287 88.4665 14.293 88.2695 14.0039C87.8112 13.3879 87.582 12.5886 87.582 11.6059C87.582 9.34817 88.4116 8.21792 90.0698 8.21517C91.6859 8.21517 92.4944 9.40317 92.4963 11.7792C92.4963 12.7142 92.2616 13.4713 91.7968 14.0534C91.5938 14.3259 91.3298 14.5469 91.0259 14.6988C90.722 14.8507 90.3867 14.9291 90.0469 14.9279M42.9055 6.03625V21.0128H45.7508V15.5742C46.5667 16.7173 47.6456 17.2883 48.9986 17.2883C49.6556 17.2996 50.3062 17.1578 50.8988 16.874C51.4542 16.598 51.9381 16.197 52.3123 15.7025C52.7138 15.1644 53.0108 14.5567 53.1905 13.9095C53.3986 13.1659 53.4998 12.3964 53.4912 11.6243C53.5047 10.7867 53.384 9.95233 53.1337 9.15292C52.9271 8.48064 52.5956 7.85337 52.1565 7.304C51.7546 6.80995 51.246 6.41348 50.6688 6.14442C50.069 5.87034 49.4159 5.73259 48.7566 5.74108C47.3935 5.74108 46.3778 6.28283 45.7105 7.36633L45.6885 6.02708H42.9055V6.03625ZM48.0874 8.10883C48.437 8.10436 48.7823 8.18648 49.0924 8.34787C49.4025 8.50925 49.6679 8.74489 49.8648 9.03375C50.3241 9.64975 50.5532 10.4491 50.5523 11.4318C50.5523 13.6895 49.7227 14.8198 48.0645 14.8225C46.4493 14.8225 45.6408 13.6345 45.639 11.2585C45.639 10.3235 45.8737 9.56633 46.3375 8.98333C46.5402 8.71039 46.8043 8.48906 47.1085 8.33728C47.4127 8.18551 47.7484 8.10755 48.0883 8.10975M102.617 20.0301C103.639 20.0301 104.412 19.7725 104.933 19.2564C105.454 18.7403 105.715 18.0125 105.715 17.0711V15.3569H105.607C105.45 15.6941 105.225 15.9957 104.947 16.2433C104.631 16.5238 104.263 16.7383 103.863 16.8758C103.413 17.0351 102.938 17.1146 102.46 17.1105C101.677 17.1215 100.903 16.9328 100.213 16.5623C99.5343 16.1892 98.9765 15.6302 98.6049 14.9508C98.193 14.1963 97.9857 13.3472 98.0036 12.4878V10.5857C97.9978 9.92791 98.1157 9.27492 98.351 8.66067C98.5518 8.11658 98.8663 7.62154 99.2735 7.20852C99.6807 6.79551 100.171 6.474 100.712 6.26542C101.269 6.04662 101.863 5.93677 102.461 5.94183C103.188 5.92666 103.904 6.12075 104.524 6.501C105.117 6.87225 105.514 7.30308 105.716 7.7935H105.794V6.11692H107.377V17.0509C107.377 18.5341 106.951 19.6488 106.098 20.3967C105.244 21.1448 104.058 21.5188 102.539 21.5188C101.211 21.5188 100.188 21.2364 99.4703 20.6708C99.1299 20.4158 98.8456 20.0935 98.6352 19.7239C98.4253 19.3535 98.2939 18.9438 98.2493 18.5203H99.9983C100.076 18.9383 100.347 19.294 100.81 19.5882C101.272 19.8816 101.875 20.0301 102.617 20.0301ZM102.783 7.43142C102.337 7.42548 101.894 7.51225 101.483 7.68625C101.103 7.8476 100.765 8.09374 100.495 8.40583C100.216 8.73739 100.008 9.12272 99.8846 9.53792C99.7399 10.011 99.6691 10.5035 99.6747 10.9982V12.0954C99.6747 13.1404 99.9662 13.9893 100.549 14.6419C100.829 14.9612 101.177 15.2147 101.566 15.3843C101.956 15.5538 102.378 15.6352 102.802 15.6227C103.701 15.6227 104.408 15.3102 104.923 14.6868C105.437 14.0635 105.711 13.2752 105.694 12.4676V10.6645C105.713 9.83391 105.43 9.02476 104.898 8.38658C104.643 8.07527 104.319 7.8271 103.952 7.66142C103.585 7.49574 103.185 7.41703 102.783 7.43142ZM110.467 17.3186V6.12058H112.129V7.854H112.216C112.426 7.32478 112.782 6.86623 113.242 6.53217C113.737 6.15267 114.438 5.96383 115.344 5.96383C115.481 5.96383 115.699 5.97667 115.999 6.00233V7.55058C115.713 7.51787 115.426 7.5047 115.139 7.51117C114.56 7.49426 113.987 7.62419 113.472 7.88883C113.045 8.10883 112.692 8.44892 112.456 8.86783C112.232 9.2917 112.119 9.76543 112.129 10.2447V17.3186H110.467ZM122.249 5.94183C123.645 5.94183 124.781 6.37633 125.661 7.24533C126.54 8.11342 126.98 9.30875 126.98 10.8313V12.6042C126.98 14.1258 126.538 15.323 125.651 16.1947C124.765 17.0665 123.632 17.5028 122.249 17.5028C120.836 17.5028 119.693 17.0702 118.819 16.2048C117.946 15.3386 117.509 14.1387 117.509 12.6042V10.8313C117.509 9.361 117.957 8.17942 118.85 7.28383C119.742 6.38917 120.876 5.94183 122.249 5.94183ZM119.171 11.0174V12.4181C119.155 13.0738 119.28 13.7255 119.538 14.3284C119.761 14.8399 120.129 15.2726 120.599 15.5733C121.094 15.8758 121.668 16.0298 122.249 16.0133C123.207 16.0133 123.955 15.6906 124.493 15.0443C125.031 14.3972 125.299 13.5227 125.299 12.419V11.0174C125.299 9.92658 125.024 9.05575 124.473 8.40675C123.923 7.75592 123.184 7.43142 122.255 7.43142C121.832 7.41567 121.41 7.49608 121.023 7.6666C120.635 7.83712 120.291 8.09331 120.016 8.41592C119.453 9.07225 119.171 9.93942 119.171 11.0174ZM138.787 6.11875V17.3158H137.126V15.4642H137.018C136.799 16.0451 136.405 16.5434 135.889 16.8896C135.326 17.2975 134.598 17.5019 133.705 17.5019C132.512 17.5019 131.572 17.2159 130.885 16.6448C130.198 16.0728 129.854 15.1772 129.854 13.9553V6.11783H131.545V13.5245C131.545 15.2093 132.392 16.0518 134.086 16.0518C134.887 16.0744 135.665 15.7806 136.252 15.2341C136.527 14.993 136.748 14.6954 136.899 14.3616C137.05 14.0278 137.128 13.6654 137.127 13.299V6.11875H138.787ZM146.881 17.5028C145.278 17.5028 144.206 16.8887 143.665 15.6603H143.588V21.2355H141.917V6.11875H143.5V7.89158H143.588C143.812 7.30839 144.227 6.81812 144.766 6.50008C145.348 6.12792 146.079 5.94183 146.959 5.94183C148.262 5.94183 149.303 6.36992 150.081 7.22517C150.86 8.08133 151.249 9.23725 151.25 10.6938V12.7508C151.25 14.2203 150.854 15.3798 150.062 16.2287C149.27 17.0784 148.21 17.5028 146.881 17.5028ZM146.657 16.0133C147.549 16.0133 148.261 15.7034 148.792 15.0828C149.323 14.4623 149.589 13.5474 149.588 12.3393V11.0953C149.588 9.9 149.323 8.99067 148.792 8.36733C148.261 7.74308 147.527 7.43142 146.592 7.43142C145.657 7.43142 144.923 7.73392 144.389 8.33708C143.854 8.94208 143.588 9.75975 143.588 10.7919V12.8691C143.572 13.2822 143.639 13.6942 143.783 14.0817C143.927 14.4691 144.147 14.8242 144.428 15.1268C144.988 15.7181 145.731 16.0142 146.657 16.0133Z" fill="#25211F"></path></svg>