<svg class="svg-logo" viewBox="0 0 157 20"><path d="M12.0734 4.24726L7.84374 -2.56853e-08L2.57921e-08 7.87637L12.0734 20L24.1667 7.87637L16.3229 -5.34514e-08L12.0734 4.24726ZM12.0734 16.3709L3.61408 7.87637L7.84374 3.62911L12.0734 7.87637L16.2832 3.64905L20.5327 7.89631L12.0734 16.3709Z" fill="#946BCE"></path><path d="M83.6062 1.46827V6.41342C82.8616 5.3765 81.8554 4.83809 80.6283 4.83809C80.0224 4.82314 79.4218 4.95312 78.8774 5.21701C78.3734 5.47751 77.9283 5.8371 77.5693 6.27381C77.206 6.76764 76.9335 7.32118 76.7644 7.90893C76.5708 8.58324 76.4759 9.2816 76.4826 9.98264C76.4695 10.7458 76.5782 11.5063 76.8047 12.2359C76.9923 12.8477 77.2999 13.4169 77.7099 13.9109C78.0711 14.3695 78.5412 14.7325 79.0783 14.9677C79.6273 15.2161 80.2257 15.3387 80.8291 15.3266C82.0768 15.3266 83.0226 14.8281 83.6263 13.8511L83.6465 15.0674L86.2224 15.0674V1.46827L83.6062 1.46827ZM83.1031 12.4154C82.9101 12.662 82.6631 12.8619 82.3808 13.0001C82.0984 13.1382 81.788 13.211 81.4731 13.213C81.1529 13.2167 80.8367 13.1422 80.5524 12.9961C80.2681 12.8501 80.0244 12.6369 79.843 12.3755C79.4204 11.8165 79.2192 11.0793 79.2192 10.2021C79.2192 8.14824 79.9839 7.13121 81.5132 7.11132C83.0025 7.11132 83.7471 8.18806 83.7471 10.3415C83.7792 11.0856 83.5518 11.8179 83.1031 12.4154Z" fill="#25211F"></path><path d="M74.2886 5.87497C73.9155 5.51802 73.4593 5.25776 72.9605 5.11727C72.3067 4.93083 71.6282 4.84345 70.948 4.85808C70.2547 4.84471 69.5631 4.93204 68.8954 5.11727C68.3964 5.25113 67.9351 5.4967 67.547 5.83507C67.2014 6.13772 66.9384 6.52179 66.7823 6.9518C66.6256 7.40847 66.5375 7.88545 66.5207 8.3675H68.996C69.0406 7.96382 69.2173 7.58569 69.4991 7.29081C69.7607 7.01159 70.2034 6.892 70.8274 6.892C71.2609 6.87253 71.6919 6.96893 72.0749 7.17109C72.1808 7.23114 72.2737 7.31131 72.3483 7.40702C72.4228 7.50272 72.4775 7.61207 72.5093 7.72878C72.5411 7.8455 72.5493 7.96728 72.5335 8.08715C72.5177 8.20702 72.4781 8.32261 72.4171 8.42729C72.3607 8.52694 72.2856 8.61496 72.1958 8.68662C71.9743 8.84612 71.5115 8.96571 70.8474 9.06541C70.1833 9.16511 69.5594 9.26481 68.996 9.38453C68.4797 9.48283 67.9833 9.66469 67.5267 9.92281C67.1184 10.161 66.7842 10.5059 66.5607 10.9198C66.2976 11.4521 66.1797 12.0433 66.2186 12.6348C66.2066 13.0012 66.272 13.3661 66.4106 13.706C66.5492 14.046 66.758 14.3534 67.0236 14.6088C67.5669 15.1073 68.4122 15.3666 69.5592 15.3666C70.1718 15.3807 70.781 15.2721 71.3503 15.0475C71.8289 14.8733 72.2572 14.5857 72.598 14.21C72.6222 14.5134 72.6761 14.8138 72.759 15.1069L75.2342 15.087V8.78632C75.2412 8.22039 75.1667 7.65636 75.0129 7.11129C74.8764 6.64694 74.628 6.22257 74.2886 5.87497ZM72.5584 11.2987C72.5636 11.5902 72.4944 11.8783 72.3571 12.1362C72.2313 12.39 72.0609 12.6195 71.854 12.8141C71.632 13.0153 71.3721 13.1712 71.0893 13.2729C70.7884 13.3916 70.4674 13.4525 70.1435 13.4523C69.2776 13.4523 68.8555 13.0735 68.8555 12.3357C68.8476 12.1489 68.8814 11.9627 68.9544 11.7904C69.0275 11.618 69.138 11.4638 69.2782 11.3386C69.5598 11.1192 70.0831 10.9198 70.8478 10.7803C71.3309 10.6806 71.7137 10.6008 71.9747 10.5204C72.1909 10.4588 72.3903 10.3499 72.5584 10.2018V11.2987Z" fill="#25211F"></path><path d="M35.7509 10.0026C35.2941 9.74602 34.8076 9.54524 34.302 9.40468C33.6985 9.22517 32.9536 9.02577 32.0883 8.78659C31.6616 8.6845 31.2493 8.53041 30.8608 8.32786C30.7748 8.29003 30.6972 8.23575 30.6324 8.16813C30.5676 8.10052 30.517 8.02089 30.4833 7.93383C30.4497 7.84677 30.4337 7.75399 30.4363 7.6608C30.4389 7.56761 30.4601 7.47585 30.4986 7.39078C30.5757 7.23453 30.7031 7.1082 30.8608 7.03175C31.2573 6.87706 31.6829 6.80904 32.1085 6.83235C32.5605 6.80726 33.0095 6.91853 33.3964 7.15147C33.6922 7.40596 33.8792 7.76238 33.9197 8.14848L36.4955 8.10857C36.415 7.07165 36.0528 6.27405 35.3887 5.69586C34.7246 5.11767 33.6579 4.81844 32.2091 4.81844C31.5311 4.81812 30.8554 4.89846 30.1967 5.05775C29.7194 5.18134 29.2692 5.39086 28.8684 5.67584C28.5468 5.90668 28.2904 6.21553 28.1238 6.57276C27.9634 6.9094 27.8809 7.27731 27.8824 7.64958C27.882 8.03554 27.9431 8.41914 28.0635 8.7862C28.1862 9.15689 28.4173 9.48307 28.7275 9.72329C29.1429 10.0581 29.6124 10.3209 30.1161 10.5007C30.8889 10.7869 31.6827 11.0136 32.4906 11.1788C32.9184 11.2579 33.332 11.399 33.7183 11.5975C33.8521 11.6817 33.9603 11.8004 34.0312 11.941C34.1021 12.0815 34.1331 12.2384 34.1208 12.3951C34.1208 12.5569 34.0678 12.7143 33.9698 12.8437C33.8719 12.9731 33.7342 13.0676 33.5774 13.1129C33.1659 13.2916 32.7182 13.3735 32.2693 13.3522C31.7519 13.3788 31.2388 13.2465 30.8 12.9734C30.6192 12.8537 30.4723 12.69 30.3736 12.498C30.2748 12.3059 30.2274 12.092 30.2359 11.8767L27.5 11.8767C27.5176 12.3751 27.6411 12.8642 27.8622 13.3123C28.0943 13.7469 28.4249 14.1223 28.8281 14.409C29.2851 14.7287 29.796 14.965 30.3368 15.1069C30.9819 15.2662 31.6443 15.3466 32.3091 15.3462C33.7784 15.3462 34.905 15.0472 35.6496 14.4689C36.002 14.2158 36.2882 13.8828 36.4842 13.4977C36.6803 13.1126 36.7805 12.6867 36.7765 12.2555C36.7981 11.7784 36.7158 11.3024 36.5352 10.8596C36.3697 10.4999 36.0954 10.2001 35.7503 10.0017" fill="#25211F"></path><path d="M46.5979 6.27371C46.2217 5.81727 45.7449 5.45234 45.2042 5.20692C44.6635 4.96151 44.0732 4.84215 43.4787 4.85801C42.2309 4.85801 41.2851 5.35651 40.6813 6.33351L40.6613 5.11721H38.0853L38.0853 18.7562L40.7014 18.7562V13.7907C41.0256 14.2773 41.4685 14.675 41.989 14.9468C42.5096 15.2187 43.091 15.356 43.6794 15.346C44.2852 15.3609 44.8857 15.231 45.4301 14.9671C45.9341 14.7066 46.3792 14.347 46.7381 13.9103C47.1054 13.4187 47.3782 12.8645 47.5431 12.2751C47.7369 11.6009 47.832 10.9027 47.8254 10.2017C47.8385 9.43847 47.7299 8.67799 47.5035 7.94835C47.3076 7.33993 47.0004 6.77251 46.5979 6.27371ZM42.7944 13.1134C41.3051 13.1134 40.5606 12.0367 40.5607 9.8831C40.5285 9.13901 40.7558 8.40664 41.2045 7.80913C41.396 7.5609 41.6427 7.35978 41.9255 7.22144C42.2082 7.0831 42.5193 7.01127 42.8347 7.01152C43.1548 7.00784 43.471 7.0823 43.7553 7.22834C44.0396 7.37438 44.2832 7.5875 44.4647 7.84891C44.8874 8.40786 45.0886 9.14502 45.0886 10.0224C45.0886 12.0763 44.3238 13.0935 42.7944 13.1134Z" fill="#25211F"></path><path d="M64.126 6.33355C63.3211 5.33654 62.1539 4.85792 60.6043 4.85792C59.896 4.83751 59.1908 4.95965 58.5315 5.21695C57.948 5.43177 57.4239 5.78021 57.002 6.23384C56.5772 6.69388 56.2549 7.23742 56.0562 7.82906C55.8287 8.50357 55.7198 9.21176 55.7342 9.92278C55.7342 13.5519 57.4045 15.3465 60.7653 15.3465C61.7582 15.3735 62.733 15.0795 63.5424 14.509C64.3504 13.9325 64.9276 13.0924 65.1725 12.1361H62.4355C62.337 12.4816 62.1058 12.775 61.7915 12.9537C61.4426 13.1522 61.0468 13.2554 60.6444 13.2527C60.3472 13.2635 60.0511 13.2103 59.7766 13.0967C59.5022 12.9831 59.2559 12.8118 59.0547 12.5947C58.6277 12.0921 58.3924 11.4567 58.3901 10.7997L65.333 10.7997C65.333 8.80566 64.9305 7.33056 64.126 6.33355ZM58.451 9.12517C58.4733 8.52607 58.7085 7.95404 59.1151 7.51007C59.2906 7.32536 59.5027 7.17863 59.7382 7.0791C59.9737 6.97958 60.2275 6.92941 60.4835 6.93175C60.7452 6.92783 61.0051 6.97528 61.2482 7.07136C61.4911 7.15314 61.7115 7.28965 61.8922 7.47016C62.0932 7.66104 62.251 7.89212 62.355 8.14805C62.472 8.4548 62.5399 8.77777 62.5562 9.10529L58.451 9.12517Z" fill="#25211F"></path><path d="M53.8627 4.89822C53.5988 4.92451 53.3408 4.9918 53.098 5.09762C52.8284 5.20473 52.5771 5.35273 52.3534 5.53633C52.0836 5.76408 51.8525 6.03339 51.6691 6.33394V5.13805L49.1738 5.13805L49.1738 15.1082L51.8302 15.0881L51.8302 9.90277C51.8302 8.28767 52.6352 7.49006 54.2652 7.49006C54.5146 7.49013 54.7636 7.51013 55.0098 7.54985V4.85805H54.6677C54.3859 4.85805 54.1243 4.87833 53.8627 4.89822Z" fill="#25211F"></path><path d="M96.9068 11.4778C96.6164 13.8213 94.6869 15.4043 92.2178 15.4043C89.4378 15.4043 87.529 13.5746 87.529 9.95653C87.529 6.33844 89.4373 4.75518 92.3003 4.75518C94.9559 4.75518 96.7607 6.2559 96.927 8.64053L94.2091 8.64053C94.0638 7.59205 93.2963 6.97538 92.2796 6.97538C91.1382 6.97538 90.2048 7.69487 90.2048 9.89453C90.2048 12.0942 91.1385 13.1632 92.1967 13.1632C93.2548 13.1632 94.0847 12.5671 94.1884 11.4775L96.9068 11.4778Z" fill="#25211F"></path><path d="M97.7294 10.0797C97.7294 6.8728 99.742 4.75529 102.978 4.75529C106.174 4.75529 108.165 6.85213 108.165 10.0797C108.165 13.2868 106.153 15.4042 102.978 15.4042C99.6797 15.4042 97.7294 13.2251 97.7294 10.0797ZM105.448 10.0797C105.448 8.02398 104.618 7.0167 102.978 7.0167C101.339 7.0167 100.51 8.02398 100.51 10.0797C100.51 12.1355 101.34 13.1635 102.978 13.1635C104.617 13.1635 105.448 12.1355 105.448 10.0797Z" fill="#25211F"></path><path d="M115.808 15.1372V9.01094C115.808 7.44848 115.351 7.01679 114.065 7.01679C112.654 7.01679 111.969 7.79802 111.969 9.33981V15.1373L109.272 15.1373V5.02277L111.845 5.02277V6.50295C112.467 5.37205 113.505 4.75552 115.144 4.75552C117.094 4.75552 118.526 5.92723 118.526 8.12689V15.1372L115.808 15.1372Z" fill="#25211F"></path><path d="M126.375 15.1372V9.01094C126.375 7.44848 125.919 7.01679 124.633 7.01679C123.222 7.01679 122.537 7.79802 122.537 9.33981V15.1373L119.84 15.1373V5.02277L122.413 5.02277V6.50295C123.035 5.37205 124.072 4.75552 125.711 4.75552C127.662 4.75552 129.093 5.92723 129.093 8.12689V15.1372H126.375Z" fill="#25211F"></path><path d="M132.877 10.7789C132.96 12.2997 133.831 13.2869 135.159 13.2869C136.031 13.2869 136.798 12.8552 136.985 12.156L139.765 12.156C139.143 14.2323 137.462 15.4041 135.284 15.4041C131.881 15.4041 130.18 13.5538 130.18 9.89455C130.18 6.76976 131.985 4.75507 135.118 4.75507C138.251 4.75507 139.91 6.77002 139.91 10.7789L132.877 10.7789ZM137.13 9.09304C137.088 7.59233 136.092 6.87284 135.034 6.87284C133.955 6.87284 133.063 7.69515 132.96 9.09304L137.13 9.09304Z" fill="#25211F"></path><path d="M150.188 11.4779C149.897 13.8214 147.968 15.4044 145.498 15.4044C142.718 15.4044 140.81 13.5747 140.81 9.95661C140.81 6.33851 142.718 4.75552 145.582 4.75552C148.237 4.75552 150.042 6.25623 150.208 8.64086H147.49C147.345 7.59238 146.577 6.97571 145.561 6.97571C144.419 6.97571 143.486 7.6952 143.486 9.89486C143.486 12.0945 144.42 13.1635 145.478 13.1635C146.536 13.1635 147.366 12.5674 147.47 11.4779L150.188 11.4779Z" fill="#25211F"></path><path d="M156.082 13.0992V15.2374L154.714 15.2876C153.35 15.3344 152.417 15.1001 151.918 14.5849C151.593 14.257 151.431 13.7518 151.431 13.0691V6.33334L150.349 6.33334V4.29551H151.431V1.24377L154.288 1.24377V4.29551H156.081V6.33334L154.288 6.33334V12.1155C154.288 12.5639 154.346 12.8433 154.46 12.9536C154.575 13.064 154.926 13.1192 155.514 13.1192C155.601 13.1192 155.694 13.1176 155.793 13.1143C155.891 13.111 155.988 13.106 156.082 13.0992Z" fill="#25211F"></path></svg>