<svg class="svg-logo" viewBox="0 0 132 20"><path d="M12.0734 4.24726L7.84374 -2.56853e-08L2.57921e-08 7.87637L12.0734 20L24.1667 7.87637L16.3229 -5.34514e-08L12.0734 4.24726ZM12.0734 16.3709L3.61408 7.87637L7.84374 3.62911L12.0734 7.87637L16.2832 3.64905L20.5327 7.89631L12.0734 16.3709Z" fill="#FF8256"></path><path d="M84.523 1.35584V6.301C83.7662 5.26411 82.7436 4.72573 81.4959 4.72573C80.8824 4.70579 80.2688 4.84537 79.7166 5.10459C79.2052 5.36381 78.7553 5.72273 78.3871 6.16142C78.019 6.65992 77.7326 7.21825 77.569 7.79651C77.3645 8.47448 77.2827 9.17239 77.2827 9.87029C77.2622 10.628 77.3849 11.3857 77.6099 12.1235C77.794 12.7417 78.1212 13.3 78.5303 13.7985C78.8984 14.2571 79.3689 14.6161 79.9211 14.8553C80.4733 15.0946 81.0869 15.2342 81.7005 15.2143C82.9685 15.2143 83.9298 14.7158 84.5434 13.7387L84.5639 14.955H87.1818V1.35584L84.523 1.35584ZM84.0116 12.303C83.6026 12.8015 83.0094 13.1006 82.355 13.1006C81.7005 13.1006 81.0664 12.8015 80.6983 12.2631C80.2688 11.7048 80.0642 10.967 80.0642 10.0896C80.0642 8.0358 80.8415 7.01885 82.3959 6.99891C83.9094 6.99891 84.6661 8.07568 84.6661 10.2292C84.707 10.967 84.4616 11.7048 84.0116 12.303Z" fill="#25211F"></path><path d="M75.0528 5.7626C74.6642 5.40368 74.2143 5.14445 73.7029 5.00487C73.0485 4.82541 72.3531 4.72571 71.6577 4.74565C70.9623 4.72571 70.2464 4.82541 69.5715 5.00487C69.0602 5.14445 68.5898 5.38374 68.2011 5.72272C67.8535 6.02182 67.5876 6.40068 67.4239 6.83937C67.2603 7.29799 67.1785 7.77656 67.1581 8.25512H69.6737C69.7146 7.85632 69.8987 7.47746 70.1851 7.17835C70.451 6.89919 70.9009 6.77955 71.535 6.77955C71.9849 6.75961 72.4144 6.85931 72.803 7.05871C73.253 7.31793 73.4166 7.87626 73.1507 8.31494C73.0894 8.41464 73.028 8.4944 72.9257 8.57417C72.7008 8.73369 72.2303 8.85333 71.5554 8.95303C70.8805 9.05273 70.2464 9.15243 69.6737 9.27207C69.142 9.37177 68.6511 9.55123 68.1807 9.81046C67.7716 10.0497 67.4239 10.3887 67.199 10.8075C66.9331 11.3458 66.8104 11.9241 66.8513 12.5223C66.8308 13.2601 67.1171 13.978 67.6694 14.4964C68.2216 14.9949 69.0806 15.2541 70.2464 15.2541C70.86 15.2741 71.494 15.1544 72.0667 14.9351C72.5576 14.7556 72.9871 14.4765 73.3348 14.0976C73.3552 14.3967 73.4166 14.6958 73.4984 14.9949L76.0141 14.975V8.67387C76.0141 8.11554 75.9527 7.53728 75.7891 6.99889C75.646 6.54027 75.4005 6.10158 75.0528 5.7626ZM73.2939 11.1863C73.2939 11.4854 73.2325 11.7646 73.0894 12.0238C72.9666 12.283 72.7826 12.5024 72.578 12.7018C72.3531 12.9012 72.0872 13.0607 71.8008 13.1604C71.494 13.28 71.1668 13.3399 70.8396 13.3399C69.9601 13.3399 69.5306 12.961 69.5306 12.2232C69.5101 11.8444 69.6737 11.4854 69.9601 11.2262C70.2464 11.0069 70.7782 10.8075 71.5554 10.6679C72.0463 10.5682 72.4349 10.4884 72.7008 10.4087C72.9257 10.3488 73.1303 10.2292 73.2939 10.0896V11.1863Z" fill="#25211F"></path><path d="M35.8856 9.8902C35.4152 9.63097 34.9244 9.43157 34.413 9.29199C33.7995 9.11253 33.0427 8.91313 32.1632 8.67385C31.7337 8.57414 31.3042 8.41462 30.9156 8.21522C30.5475 8.0557 30.3838 7.63696 30.5475 7.27803C30.6293 7.11851 30.752 6.99887 30.9156 6.91911C31.3247 6.75959 31.7542 6.69977 32.1837 6.71971C32.6337 6.69977 33.1041 6.79947 33.4927 7.03875C33.7995 7.29797 33.9835 7.6569 34.0244 8.03576L36.6424 7.99588C36.5606 6.95899 36.1924 6.16138 35.5175 5.58312C34.8425 5.00485 33.7586 4.70575 32.286 4.70575C31.5906 4.70575 30.9156 4.78551 30.2407 4.94503C29.7498 5.06467 29.2998 5.28401 28.8908 5.56318C28.5635 5.80246 28.2977 6.10156 28.134 6.46049C27.9704 6.79947 27.8886 7.15839 27.8886 7.53726C27.8886 7.91612 27.95 8.31492 28.0727 8.67385C28.1954 9.05271 28.4408 9.37175 28.7476 9.61103C29.1771 9.95002 29.6475 10.2092 30.1589 10.3887C30.9361 10.6679 31.7542 10.9071 32.5723 11.0667C33.0018 11.1464 33.4313 11.286 33.8199 11.4854C34.1063 11.6649 34.2494 11.964 34.229 12.283C34.229 12.622 34.004 12.9012 33.6767 13.0009C33.2677 13.1803 32.7973 13.2601 32.3473 13.2401C31.8155 13.2601 31.3042 13.1404 30.8543 12.8613C30.4861 12.622 30.2611 12.2033 30.2816 11.7646H27.5C27.5205 12.2631 27.6432 12.7616 27.8682 13.2003C28.1136 13.639 28.4408 14.0178 28.8499 14.297C29.3203 14.616 29.8316 14.8553 30.3838 14.9949C31.0383 15.1544 31.7133 15.2342 32.3882 15.2342C33.8813 15.2342 35.0266 14.9351 35.7834 14.3568C36.5197 13.8384 36.9287 13.0208 36.9287 12.1434C36.9492 11.6649 36.8674 11.1863 36.6833 10.7476C36.5197 10.3887 36.2333 10.0896 35.8856 9.8902Z" fill="#25211F"></path><path d="M46.9101 6.16142C46.1329 5.24417 44.9671 4.70578 43.74 4.74566C42.4719 4.74566 41.5106 5.24417 40.897 6.22124L40.8766 5.00489H38.2586V18.644H40.9175V13.6789C41.5924 14.6759 42.7378 15.2541 43.9445 15.2342C44.5581 15.2541 45.1717 15.1146 45.7239 14.8553C46.2352 14.5961 46.6852 14.2372 47.0533 13.7985C47.4215 13.3 47.7078 12.7616 47.8714 12.1634C48.076 11.4854 48.1578 10.7875 48.1578 10.0896C48.1782 9.3319 48.0555 8.57418 47.8305 7.83639C47.626 7.21825 47.3192 6.65992 46.9101 6.16142ZM43.0446 13.0009C41.5311 13.0009 40.7743 11.9241 40.7743 9.77059C40.7334 9.0328 40.9788 8.29501 41.4288 7.69681C41.8174 7.19831 42.431 6.8992 43.0855 6.8992C43.74 6.8992 44.374 7.19831 44.7422 7.73669C45.1717 8.29502 45.3762 9.0328 45.3762 9.91017C45.3762 11.964 44.599 12.981 43.0446 13.0009Z" fill="#25211F"></path><path d="M64.724 6.22115C63.9059 5.22414 62.7197 4.74558 61.1448 4.74558C60.4289 4.72564 59.7131 4.84528 59.0381 5.1045C58.445 5.32384 57.9132 5.66282 57.4837 6.12145C57.0542 6.58007 56.727 7.11846 56.5225 7.71666C56.2975 8.39463 56.1748 9.09253 56.1952 9.81038C56.1952 13.4395 57.8928 15.2341 61.3084 15.2341C62.3106 15.2541 63.3128 14.9749 64.1309 14.3966C64.949 13.8184 65.5421 12.9809 65.7876 12.0237H63.006C62.9037 12.3627 62.6787 12.6618 62.3515 12.8413C62.0038 13.0407 61.5947 13.1404 61.1857 13.1404C60.5721 13.1603 59.979 12.9211 59.5699 12.4824C59.1404 11.9839 58.895 11.3458 58.895 10.6877H65.9512C65.9512 8.69373 65.5421 7.21816 64.724 6.22115ZM58.9563 9.01277C58.9768 8.41457 59.2222 7.8363 59.6313 7.39762C59.9994 7.01876 60.4903 6.81935 61.0221 6.81935C61.288 6.81935 61.5538 6.85923 61.7993 6.95894C62.0447 7.0387 62.2697 7.17828 62.4538 7.35774C62.6583 7.55714 62.8219 7.77648 62.9242 8.03571C63.0469 8.33481 63.1083 8.67379 63.1287 8.99283L58.9563 9.01277Z" fill="#25211F"></path><path d="M54.293 4.78546C54.0271 4.8054 53.7612 4.88516 53.5158 4.98486C53.2499 5.08456 52.984 5.24408 52.759 5.42354C52.4931 5.64288 52.2477 5.92205 52.0636 6.22115V5.02474H49.5275V14.9948L52.2272 14.9749V9.79044C52.2272 8.17529 53.0454 7.37768 54.702 7.37768C54.9475 7.37768 55.2133 7.39762 55.4588 7.4375V4.74558H55.1111C54.8247 4.74558 54.5589 4.76552 54.293 4.78546Z" fill="#25211F"></path><path d="M118.822 6.14149C118.351 5.68287 117.779 5.32394 117.165 5.08466C116.47 4.82544 115.734 4.68586 114.977 4.7058C114.22 4.68586 113.463 4.82544 112.768 5.08466C112.134 5.32394 111.582 5.68287 111.111 6.16143C110.641 6.64 110.273 7.21826 110.048 7.83641C109.802 8.53431 109.679 9.2721 109.679 10.0099C109.679 10.7477 109.802 11.4655 110.027 12.1634C110.457 13.4396 111.459 14.4366 112.727 14.9351C113.443 15.2143 114.2 15.3339 114.977 15.314C115.713 15.314 116.449 15.1943 117.145 14.9351C117.779 14.6958 118.331 14.3369 118.801 13.8583C119.272 13.3798 119.62 12.8015 119.845 12.1834C120.09 11.4855 120.213 10.7477 120.213 10.0099C120.233 9.2721 120.09 8.51437 119.845 7.81647C119.64 7.17838 119.292 6.62006 118.822 6.14149ZM114.997 13.0607C113.341 13.0607 112.502 12.0438 112.502 9.98995C112.502 7.93611 113.341 6.9391 114.997 6.9391C116.654 6.9391 117.492 7.95605 117.492 9.98995C117.492 12.0238 116.654 13.0607 114.997 13.0607Z" fill="#25211F"></path><path d="M131.113 7.83639C130.929 7.21825 130.602 6.65992 130.193 6.16142C129.416 5.24417 128.25 4.70578 127.023 4.74566C125.755 4.74566 124.793 5.24417 124.18 6.22124L124.159 5.00488H121.541V18.644H124.2V13.6789C124.875 14.6759 126.021 15.2541 127.227 15.2342C127.841 15.2541 128.455 15.1146 129.007 14.8553C129.518 14.5961 129.968 14.2372 130.336 13.7985C130.704 13.3 130.991 12.7417 131.154 12.1634C131.359 11.4854 131.441 10.7875 131.441 10.0896C131.461 9.3319 131.338 8.57418 131.113 7.83639ZM126.327 13.0009C124.814 13.0009 124.057 11.9241 124.057 9.77059C124.016 9.0328 124.262 8.29501 124.712 7.69681C125.1 7.19831 125.714 6.8992 126.368 6.8992C127.023 6.8992 127.657 7.1983 128.025 7.73669C128.455 8.29501 128.659 9.0328 128.659 9.91017C128.659 11.964 127.882 12.981 126.327 13.0009Z" fill="#25211F"></path><path d="M96.7527 9.92996C96.2823 9.67074 95.7915 9.47134 95.2801 9.33176C94.6665 9.17223 93.9302 8.95289 93.0303 8.71361C92.6008 8.61391 92.1713 8.45439 91.7827 8.25499C91.5168 8.13534 91.3532 7.89606 91.3532 7.6169C91.3327 7.33774 91.5168 7.05858 91.7827 6.95887C92.1918 6.81929 92.6213 6.73953 93.0508 6.75947C93.6235 6.75947 94.0734 6.85917 94.3598 7.07852C94.6665 7.33774 94.8506 7.69666 94.8915 8.07552L97.5095 8.03564C97.489 7.1184 97.08 6.24103 96.3846 5.62288C95.7096 5.04462 94.6256 4.74551 93.153 4.74551C92.4576 4.72557 91.7827 4.80533 91.1078 4.9848C90.6169 5.10444 90.1669 5.32378 89.7579 5.60294C89.4306 5.84222 89.1647 6.14133 89.0011 6.50025C88.8375 6.83923 88.7557 7.19816 88.7557 7.57702C88.7557 7.95588 88.8171 8.35469 88.9398 8.71361C89.0829 9.07253 89.3079 9.39158 89.6147 9.6508C90.0442 9.98978 90.5146 10.249 91.0259 10.4285C91.8032 10.7076 92.6213 10.9469 93.4394 11.1064C93.8689 11.1862 94.2984 11.3258 94.687 11.5252C94.9529 11.7046 95.1165 12.0037 95.0961 12.3228C95.0961 12.6618 94.8711 12.9409 94.5438 13.0406C94.1143 13.2002 93.6644 13.2799 93.2144 13.2799C92.6826 13.2999 92.1713 13.1603 91.7214 12.901C91.3532 12.6618 91.1282 12.243 91.1487 11.8043H88.3671C88.3671 12.8013 88.8784 13.7385 89.717 14.3168C90.1874 14.6358 90.6987 14.8751 91.2509 15.0147C91.9054 15.1942 92.5804 15.2739 93.2553 15.254C94.7484 15.254 95.8733 14.9549 96.6505 14.3766C97.3663 13.8582 97.7958 13.0406 97.7958 12.1633C97.8163 11.6847 97.7345 11.2261 97.5504 10.7874C97.3868 10.4285 97.1004 10.1294 96.7527 9.92996Z" fill="#25211F"></path><path d="M107.389 5.58315C106.734 5.02483 105.875 4.74567 104.832 4.74567C104.178 4.74567 103.544 4.90519 102.971 5.18435C102.725 5.32393 102.48 5.48345 102.275 5.68285C102.091 5.86232 101.928 6.06172 101.825 6.301V1.35583L99.1257 1.35583V14.9949H101.825V9.25215C101.825 8.9331 101.866 8.61406 101.969 8.31496C102.05 8.03579 102.194 7.77657 102.378 7.53729C102.562 7.31795 102.787 7.13849 103.032 7.01885C103.319 6.87926 103.625 6.81944 103.932 6.81944C104.546 6.81944 104.996 6.95903 105.282 7.23819C105.548 7.51735 105.691 8.0358 105.691 8.79352V14.975H108.37V7.91615C108.37 6.91914 108.043 6.14148 107.389 5.58315Z" fill="#25211F"></path></svg>