<svg viewBox="0 0 21 20"><path d="M9.46889 0.588475C9.62806 0.488706 9.81212 0.435791 9.99998 0.435791C9.99998 0.435791 10.0599 14.9338 9.99998 16.7599L4.87998 19.4299C4.71575 19.517 4.5305 19.5566 4.34503 19.5442C4.15955 19.5318 3.98119 19.468 3.82998 19.3599C3.67483 19.2488 3.55473 19.0955 3.48385 18.9184C3.41297 18.7412 3.39428 18.5474 3.42998 18.3599L4.42998 12.6799L0.299977 8.6799C0.171435 8.55163 0.080249 8.39077 0.0362052 8.21459C-0.00783865 8.03842 -0.00307759 7.85358 0.0499774 7.6799C0.107937 7.50218 0.214554 7.34425 0.357728 7.22406C0.500902 7.10386 0.6749 7.02621 0.859977 6.9999L6.54998 6.1599L9.09998 0.999901C9.18186 0.83083 9.30971 0.688243 9.46889 0.588475Z"></path></svg>