<svg class="svg-icon" viewBox="0 0 21 20"><path d="M19.6693 7.2074C19.822 7.32633 19.9368 7.48699 20 7.6699C20.0486 7.85278 20.0444 8.0457 19.9877 8.22625C19.9311 8.4068 19.8244 8.56758 19.68 8.6899L15.55 12.6899L16.55 18.3699C16.5857 18.5574 16.567 18.7512 16.4961 18.9284C16.4252 19.1055 16.3051 19.2588 16.15 19.3699C15.9784 19.4941 15.7718 19.5607 15.56 19.5599C15.3988 19.5604 15.2403 19.5191 15.1 19.4399L9.99998 16.7599L4.87998 19.4299C4.71575 19.517 4.5305 19.5566 4.34503 19.5442C4.15955 19.5318 3.98119 19.468 3.82998 19.3599C3.67483 19.2488 3.55473 19.0955 3.48385 18.9184C3.41297 18.7412 3.39428 18.5474 3.42998 18.3599L4.42998 12.6799L0.299977 8.6799C0.171435 8.55163 0.080249 8.39077 0.0362052 8.21459C-0.00783865 8.03842 -0.00307759 7.85358 0.0499774 7.6799C0.107937 7.50218 0.214554 7.34425 0.357728 7.22406C0.500902 7.10386 0.6749 7.02621 0.859977 6.9999L6.54998 6.1599L9.09998 0.999901C9.18186 0.83083 9.30971 0.688243 9.46889 0.588475C9.62806 0.488706 9.81212 0.435791 9.99998 0.435791C10.1878 0.435791 10.3719 0.488706 10.5311 0.588475C10.6902 0.688243 10.8181 0.83083 10.9 0.999901L13.45 6.1699L19.14 6.9999C19.3328 7.0164 19.5167 7.08848 19.6693 7.2074Z"></path></svg>