<svg class="svg-logo" viewBox="0 0 158 24"><path d="M14.4881 5.09671L9.41249 -3.08223e-08L3.09506e-08 9.45164L14.4881 24L29 9.45164L19.5875 -6.41417e-08L14.4881 5.09671ZM14.4881 19.6451L4.33689 9.45164L9.41249 4.35493L14.4881 9.45164L19.5399 4.37886L24.6393 9.47557L14.4881 19.6451Z"></path><path d="M101.428 1.62708V7.56127C100.519 6.31701 99.2923 5.67094 97.7951 5.67094C97.0588 5.64702 96.3225 5.81451 95.6599 6.12558C95.0463 6.43665 94.5063 6.86735 94.0645 7.39377C93.6228 7.99198 93.2792 8.66197 93.0828 9.35589C92.8374 10.1694 92.7392 11.0069 92.7392 11.8444C92.7147 12.7537 92.8619 13.663 93.1319 14.5483C93.3528 15.2901 93.7455 15.9601 94.2364 16.5583C94.6781 17.1086 95.2426 17.5393 95.9053 17.8265C96.568 18.1136 97.3043 18.2811 98.0406 18.2572C99.5623 18.2572 100.716 17.659 101.452 16.4865L101.477 17.9461H104.618V1.62708L101.428 1.62708ZM100.814 14.7637C100.323 15.3619 99.6113 15.7208 98.826 15.7208C98.0406 15.7208 97.2797 15.3619 96.8379 14.7158C96.3225 14.0458 96.0771 13.1605 96.0771 12.1076C96.0771 9.64303 97.0097 8.42269 98.875 8.39876C100.691 8.39876 101.599 9.69088 101.599 12.2751C101.648 13.1605 101.354 14.0458 100.814 14.7637Z"></path><path d="M90.0634 6.91519C89.5971 6.48448 89.0571 6.17342 88.4435 6.00592C87.6581 5.79057 86.8237 5.67093 85.9892 5.69485C85.1547 5.67093 84.2957 5.79057 83.4858 6.00592C82.8722 6.17342 82.3077 6.46056 81.8414 6.86734C81.4241 7.22626 81.1051 7.68089 80.9087 8.20732C80.7124 8.75766 80.6142 9.33194 80.5897 9.90622H83.6085C83.6576 9.42765 83.8785 8.97302 84.2221 8.6141C84.5411 8.2791 85.0811 8.13553 85.8419 8.13553C86.3819 8.1116 86.8973 8.23124 87.3636 8.47053C87.9036 8.78159 88.0999 9.45158 87.7809 9.978C87.7072 10.0976 87.6336 10.1934 87.5109 10.2891C87.2409 10.4805 86.6764 10.6241 85.8665 10.7437C85.0566 10.8633 84.2957 10.983 83.6085 11.1266C82.9704 11.2462 82.3813 11.4616 81.8168 11.7726C81.326 12.0598 80.9087 12.4665 80.6387 12.969C80.3197 13.6151 80.1724 14.309 80.2215 15.0269C80.197 15.9122 80.5406 16.7736 81.2033 17.3958C81.8659 17.994 82.8967 18.305 84.2957 18.305C85.032 18.329 85.7929 18.1854 86.4801 17.9222C87.0691 17.7068 87.5845 17.3718 88.0018 16.9172C88.0263 17.2761 88.0999 17.635 88.1981 17.994L91.2169 17.97V10.4087C91.2169 9.73872 91.1433 9.0448 90.947 8.39874C90.7752 7.84839 90.4806 7.32197 90.0634 6.91519ZM87.9527 13.4237C87.9527 13.7826 87.879 14.1176 87.7072 14.4287C87.56 14.7397 87.3391 15.0029 87.0937 15.2422C86.8237 15.4815 86.5046 15.6729 86.161 15.7926C85.7929 15.9361 85.4002 16.0079 85.0075 16.0079C83.9521 16.0079 83.4367 15.5533 83.4367 14.6679C83.4122 14.2133 83.6085 13.7826 83.9521 13.4715C84.2957 13.2083 84.9338 12.969 85.8665 12.8015C86.4555 12.6819 86.9218 12.5862 87.2409 12.4905C87.5109 12.4187 87.7563 12.2751 87.9527 12.1076V13.4237Z"></path><path d="M43.0628 11.8683C42.4983 11.5572 41.9092 11.318 41.2957 11.1505C40.5594 10.9351 39.6512 10.6958 38.5959 10.4087C38.0805 10.289 37.5651 10.0976 37.0987 9.85834C36.657 9.66691 36.4606 9.16442 36.657 8.73371C36.7551 8.54229 36.9024 8.39872 37.0987 8.303C37.5896 8.11158 38.105 8.03979 38.6204 8.06372C39.1604 8.03979 39.7249 8.15944 40.1912 8.44657C40.5594 8.75764 40.7802 9.18835 40.8293 9.64299L43.9709 9.59513C43.8727 8.35086 43.4309 7.39373 42.621 6.69981C41.8111 6.0059 40.5103 5.64697 38.7431 5.64697C37.9087 5.64697 37.0987 5.74269 36.2888 5.93411C35.6998 6.07768 35.1598 6.34089 34.6689 6.67589C34.2763 6.96302 33.9572 7.32195 33.7608 7.75266C33.5645 8.15944 33.4663 8.59014 33.4663 9.04478C33.4663 9.49942 33.54 9.97798 33.6872 10.4087C33.8345 10.8633 34.129 11.2462 34.4971 11.5333C35.0126 11.9401 35.5771 12.2512 36.1906 12.4665C37.1233 12.8015 38.105 13.0886 39.0868 13.2801C39.6022 13.3758 40.1176 13.5433 40.5839 13.7826C40.9275 13.9979 41.0993 14.3568 41.0748 14.7397C41.0748 15.1465 40.8048 15.4815 40.4121 15.6011C39.9212 15.8165 39.3567 15.9122 38.8168 15.8883C38.1786 15.9122 37.5651 15.7686 37.0251 15.4336C36.5833 15.1465 36.3134 14.644 36.3379 14.1176H33C33.0245 14.7158 33.1718 15.314 33.4418 15.8404C33.7363 16.3668 34.129 16.8214 34.6199 17.1564C35.1844 17.5393 35.7979 17.8264 36.4606 17.9939C37.246 18.1854 38.0559 18.2811 38.8659 18.2811C40.6575 18.2811 42.0319 17.9221 42.9401 17.2282C43.8236 16.6061 44.3145 15.625 44.3145 14.5722C44.339 13.9979 44.2409 13.4236 44.02 12.8972C43.8236 12.4665 43.48 12.1076 43.0628 11.8683Z"></path><path d="M56.2922 7.39377C55.3595 6.29307 53.9606 5.64701 52.488 5.69487C50.9663 5.69487 49.8127 6.29307 49.0764 7.46556L49.0519 6.00594H45.9103V22.3728H49.101V16.4147C49.9109 17.6111 51.2853 18.305 52.7334 18.2811C53.4697 18.305 54.206 18.1375 54.8687 17.8265C55.4822 17.5154 56.0222 17.0847 56.464 16.5583C56.9058 15.9601 57.2494 15.314 57.4457 14.5962C57.6911 13.7826 57.7893 12.9451 57.7893 12.1076C57.8139 11.1984 57.6666 10.2891 57.3966 9.40374C57.1512 8.66197 56.783 7.99198 56.2922 7.39377ZM51.6535 15.6011C49.8373 15.6011 48.9292 14.309 48.9292 11.7248C48.8801 10.8394 49.1746 9.95409 49.7146 9.23624C50.1809 8.63804 50.9172 8.27912 51.7026 8.27912C52.488 8.27912 53.2488 8.63804 53.6906 9.2841C54.206 9.95409 54.4514 10.8394 54.4514 11.8923C54.4514 14.3569 53.5188 15.5772 51.6535 15.6011Z"></path><path d="M77.6688 7.46545C76.6871 6.26904 75.2636 5.69476 73.3737 5.69476C72.5147 5.67084 71.6557 5.8144 70.8458 6.12547C70.134 6.38868 69.4959 6.79546 68.9805 7.34581C68.4651 7.89616 68.0724 8.54222 67.827 9.26007C67.557 10.0736 67.4097 10.9111 67.4343 11.7725C67.4343 16.1275 69.4714 18.281 73.5701 18.281C74.7727 18.3049 75.9753 17.9699 76.9571 17.276C77.9388 16.5821 78.6506 15.5771 78.9451 14.4286H75.6072C75.4845 14.8353 75.2145 15.1943 74.8218 15.4096C74.4046 15.6489 73.9137 15.7685 73.4228 15.7685C72.6865 15.7925 71.9748 15.5053 71.4839 14.9789C70.9685 14.3807 70.674 13.615 70.674 12.8254H79.1414C79.1414 10.4326 78.6506 8.66186 77.6688 7.46545ZM70.7476 10.8154C70.7722 10.0976 71.0667 9.40364 71.5575 8.87722C71.9993 8.42258 72.5884 8.1833 73.2265 8.1833C73.5456 8.1833 73.8646 8.23115 74.1591 8.3508C74.4537 8.44651 74.7236 8.61401 74.9445 8.82936C75.19 9.06864 75.3863 9.33185 75.509 9.64292C75.6563 10.0018 75.7299 10.4086 75.7544 10.7915L70.7476 10.8154Z"></path><path d="M65.1516 5.74262C64.8325 5.76655 64.5134 5.86226 64.2189 5.9819C63.8999 6.10154 63.5808 6.29297 63.3108 6.50832C62.9918 6.77153 62.6972 7.10653 62.4763 7.46545V6.02976H59.433V17.9939L62.6727 17.9699V11.7486C62.6727 9.81042 63.6544 8.85329 65.6424 8.85329C65.937 8.85329 66.256 8.87722 66.5505 8.92507V5.69476H66.1333C65.7897 5.69476 65.4706 5.71869 65.1516 5.74262Z"></path><path d="M142.586 7.36986C142.022 6.81951 141.335 6.38881 140.598 6.10167C139.764 5.7906 138.88 5.6231 137.972 5.64703C137.064 5.6231 136.156 5.7906 135.321 6.10167C134.561 6.38881 133.898 6.81951 133.333 7.39379C132.769 7.96807 132.327 8.66199 132.057 9.40376C131.763 10.2412 131.615 11.1266 131.615 12.0119C131.615 12.8973 131.763 13.7587 132.033 14.5962C132.548 16.1276 133.751 17.324 135.272 17.9222C136.131 18.2572 137.039 18.4008 137.972 18.3768C138.856 18.3768 139.739 18.2333 140.574 17.9222C141.335 17.6351 141.997 17.2044 142.562 16.6301C143.126 16.0558 143.543 15.3619 143.813 14.6201C144.108 13.7826 144.255 12.8973 144.255 12.0119C144.28 11.1266 144.108 10.2173 143.813 9.37983C143.568 8.61413 143.151 7.94414 142.586 7.36986ZM137.997 15.673C136.009 15.673 135.002 14.4526 135.002 11.988C135.002 9.5234 136.009 8.32699 137.997 8.32699C139.985 8.32699 140.991 9.54733 140.991 11.988C140.991 14.4287 139.985 15.673 137.997 15.673Z"></path><path d="M157.336 9.40374C157.115 8.66197 156.722 7.99198 156.232 7.39377C155.299 6.29307 153.9 5.64701 152.427 5.69487C150.906 5.69487 149.752 6.29307 149.016 7.46556L148.991 6.00593H145.85V22.3728H149.04V16.4147C149.85 17.6111 151.225 18.305 152.673 18.2811C153.409 18.305 154.145 18.1375 154.808 17.8265C155.422 17.5154 155.962 17.0847 156.403 16.5583C156.845 15.9601 157.189 15.2901 157.385 14.5962C157.631 13.7826 157.729 12.9451 157.729 12.1076C157.753 11.1984 157.606 10.2891 157.336 9.40374ZM151.593 15.6011C149.777 15.6011 148.869 14.309 148.869 11.7248C148.82 10.8394 149.114 9.95409 149.654 9.23624C150.12 8.63804 150.857 8.27912 151.642 8.27912C152.427 8.27912 153.188 8.63804 153.63 9.2841C154.145 9.95409 154.391 10.8394 154.391 11.8923C154.391 14.3569 153.458 15.5772 151.593 15.6011Z"></path><path d="M116.103 11.916C115.539 11.605 114.95 11.3657 114.336 11.1982C113.6 11.0068 112.716 10.7435 111.636 10.4564C111.121 10.3368 110.606 10.1453 110.139 9.90606C109.82 9.76249 109.624 9.47535 109.624 9.14035C109.599 8.80536 109.82 8.47036 110.139 8.35072C110.63 8.18322 111.146 8.08751 111.661 8.11144C112.348 8.11144 112.888 8.23108 113.232 8.49429C113.6 8.80536 113.821 9.23607 113.87 9.6907L117.011 9.64285C116.987 8.54215 116.496 7.48931 115.661 6.74753C114.852 6.05361 113.551 5.69469 111.784 5.69469C110.949 5.67076 110.139 5.76647 109.329 5.98183C108.74 6.1254 108.2 6.38861 107.709 6.7236C107.317 7.01074 106.998 7.36967 106.801 7.80037C106.605 8.20715 106.507 8.63786 106.507 9.0925C106.507 9.54713 106.58 10.0257 106.728 10.4564C106.9 10.8871 107.17 11.27 107.538 11.581C108.053 11.9878 108.618 12.2989 109.231 12.5142C110.164 12.8492 111.146 13.1364 112.127 13.3278C112.643 13.4235 113.158 13.591 113.624 13.8303C113.943 14.0456 114.14 14.4046 114.115 14.7874C114.115 15.1942 113.845 15.5292 113.453 15.6488C112.937 15.8403 112.397 15.936 111.857 15.936C111.219 15.9599 110.606 15.7924 110.066 15.4813C109.624 15.1942 109.354 14.6917 109.378 14.1653H106.041C106.041 15.3617 106.654 16.4863 107.66 17.1802C108.225 17.5631 108.838 17.8502 109.501 18.0177C110.286 18.2331 111.096 18.3288 111.906 18.3049C113.698 18.3049 115.048 17.9459 115.981 17.252C116.84 16.6299 117.355 15.6488 117.355 14.596C117.38 14.0217 117.281 13.4714 117.06 12.9449C116.864 12.5142 116.521 12.1553 116.103 11.916Z"></path><path d="M128.866 6.69986C128.081 6.02987 127.05 5.69487 125.798 5.69487C125.013 5.69487 124.252 5.8863 123.565 6.22129C123.27 6.38879 122.976 6.58022 122.731 6.8195C122.51 7.03485 122.313 7.27413 122.191 7.56127V1.62708L118.951 1.62708V17.994H122.191V11.1026C122.191 10.7198 122.24 10.3369 122.362 9.97802C122.461 9.64303 122.632 9.33196 122.853 9.04482C123.074 8.78161 123.344 8.56626 123.639 8.42269C123.982 8.25519 124.35 8.18341 124.719 8.18341C125.455 8.18341 125.995 8.3509 126.338 8.6859C126.657 9.02089 126.829 9.64303 126.829 10.5523V17.97H130.044V9.49946C130.044 8.30305 129.652 7.36985 128.866 6.69986Z"></path></svg>